<?xml version="1.0" encoding="UTF-8" standalone="no"?>
<svg width="48" height="48" viewBox="0 0 48 48" fill="none" xmlns="http://www.w3.org/2000/svg">
  <rect width="48" height="48" rx="12" fill="#fff"/>
  <path d="M24 17.5A6.5 6.5 0 1 0 30.5 24 6.5 6.5 0 0 0 24 17.5zm0 10.5a4 4 0 1 1 4-4 4 4 0 0 1-4 4zm8-10.75a1.25 1.25 0 1 1-1.25 1.25 1.25 1.25 0 0 1 1.25-1.25zM16 12h16a4 4 0 0 1 4 4v16a4 4 0 0 1-4 4H16a4 4 0 0 1-4-4V16a4 4 0 0 1 4-4zm0 2a2 2 0 0 0-2 2v16a2 2 0 0 0 2 2h16a2 2 0 0 0 2-2V16a2 2 0 0 0-2-2z" fill="#262626"/>
</svg>
